<svg width="840" height="120" viewBox="0 0 840 120" fill="none" xmlns="http://www.w3.org/2000/svg">
<path d="M50.87 105V89.66C50.87 78.09 49.44 74.71 45.02 65.09L21.88 14.65H5.5L35.14 79.13V105H50.87ZM61.14 58.33L80.38 14.65H64.39L45.15 58.33H61.14ZM225.46 106.3C232.74 106.3 238.72 102.92 242.88 96.55L243.66 105H257.96V14.65H242.49V47.28C238.59 41.43 232.87 38.31 226.11 38.31C211.16 38.31 200.76 50.92 200.76 72.76C200.76 94.34 210.9 106.3 225.46 106.3ZM320.49 100.58V87.97C315.68 91.22 307.62 94.08 300.08 94.08C288.77 94.08 284.48 88.75 283.83 77.83H321.14V69.64C321.14 46.89 311.13 38.31 295.66 38.31C276.81 38.31 267.84 52.74 267.84 72.5C267.84 95.25 279.02 106.3 298.78 106.3C308.66 106.3 315.94 103.7 320.49 100.58ZM125.88 60.41C125.88 44.55 117.82 38.57 101.44 38.57C91.3 38.57 83.11 42.86 78.43 46.24V59.63C83.37 55.6 90.91 50.92 99.62 50.92C107.03 50.92 110.41 53.52 110.41 60.54V64.7H107.94C84.28 64.7 73.75 72.37 73.75 86.02C73.75 98.63 81.81 105.91 93.77 105.91C102.87 105.91 106.77 102.92 109.76 99.8H110.41C110.54 101.49 111.06 103.7 111.58 105H126.66C126.14 99.67 125.88 94.34 125.88 89.01V60.41ZM153.96 58.07C156.82 54.56 161.37 51.57 166.96 51.57C172.42 51.57 174.89 53.91 174.89 58.85V105H190.36V57.29C190.36 44.29 185.16 38.57 172.55 38.57C163.32 38.57 157.86 41.95 154.74 45.07H153.96L153.57 39.61H138.49V105H153.96V58.07ZM368.07 105H385.49L364.17 71.33L382.63 39.61H367.16L355.98 59.37L343.5 39.61H326.08L345.84 70.94L325.3 105H341.03L354.16 82.9L368.07 105ZM230.01 50.53C238.33 50.53 242.49 57.16 242.49 72.24C242.49 87.45 238.07 94.08 229.36 94.08C220.91 94.08 216.75 87.58 216.75 72.76C216.75 57.29 221.17 50.53 230.01 50.53ZM295.4 50.53C303.07 50.53 305.41 56.9 305.41 65.09V66.39H283.83C284.22 55.99 287.99 50.53 295.4 50.53ZM110.41 89.4C108.46 92.26 104.82 94.6 99.36 94.6C92.86 94.6 89.61 90.83 89.61 85.11C89.61 77.57 94.94 74.97 108.2 74.97H110.41V89.4Z" fill="black"/>
<g clip-path="url(#clip0_2488_7119)">
<path d="M430 60C430 37.9086 447.909 20 470 20C492.091 20 510 37.9086 510 60C510 82.0914 492.091 100 470 100C447.909 100 430 82.0914 430 60Z" fill="white"/>
<path d="M470 120C455.09 119.64 449.188 109.673 447.386 100.047C446.408 94.8144 446.837 86.1138 447.386 83.0083C448.278 77.9468 449.72 70.672 451.315 62.2305C453.597 50.1344 459.654 43.2542 472.728 40.8007L494.113 36.7167C494.679 33.5425 495.753 25.1358 494.775 19.9542C492.957 10.2259 485.459 0.15442 470.24 2.17953e-06C437.092 5.07745e-06 410 26.8516 410 60C410 93.1484 436.851 120 470 120Z" fill="#9EB9FF"/>
<path d="M470 0C484.91 0.360309 492.287 10.346 494.089 19.9714C495.067 25.2045 493.162 33.8862 492.613 36.9917C491.721 42.0532 490.28 49.328 488.684 57.7695C486.402 69.8656 480.346 76.7458 467.272 79.1993L447.371 83.1066C446.805 86.2807 444.935 94.8595 445.913 100.041C447.731 109.769 454.541 119.846 469.76 120C502.908 120 530 93.1484 530 60C530 26.8516 503.148 0 470 0Z" fill="#5282FF"/>
</g>
<path d="M589.78 106.3C599.53 106.3 606.16 102.79 610.19 100.06V87.45C604.99 91.22 599.27 94.08 590.95 94.08C576.65 94.08 569.89 82.51 569.89 59.89C569.89 36.62 576.39 25.57 591.73 25.57C598.88 25.57 605.51 28.69 610.19 31.68V19.07C606.03 16.08 599.27 13.35 590.95 13.35C566.9 13.35 553.9 31.03 553.9 59.89C553.9 89.53 567.42 106.3 589.78 106.3Z" fill="black"/>
<path d="M636.081 14.65H620.611V105H636.081V14.65Z" fill="black"/>
<path d="M675.309 38.31C658.279 38.31 646.449 50.4 646.449 72.37C646.449 94.21 658.279 106.3 675.309 106.3C692.339 106.3 704.169 94.21 704.169 72.24C704.169 50.4 692.339 38.31 675.309 38.31ZM675.309 94.08C666.729 94.08 662.439 87.45 662.439 72.37C662.439 57.16 666.729 50.53 675.309 50.53C683.889 50.53 688.179 57.16 688.179 72.24C688.179 87.45 683.889 94.08 675.309 94.08Z" fill="black"/>
<path d="M750.307 86.54C747.447 90.05 742.897 93.04 737.307 93.04C731.847 93.04 729.377 90.7 729.377 85.76V39.61H713.907V87.32C713.907 100.32 719.107 106.04 731.717 106.04C740.947 106.04 746.407 102.66 749.527 99.54H750.307L750.697 105H765.777V39.61H750.307V86.54Z" fill="black"/>
<path d="M800.895 106.3C808.175 106.3 814.155 102.92 818.315 96.55L819.095 105H833.395V14.65H817.925V47.28C814.025 41.43 808.305 38.31 801.545 38.31C786.595 38.31 776.195 50.92 776.195 72.76C776.195 94.34 786.335 106.3 800.895 106.3ZM805.445 50.53C813.765 50.53 817.925 57.16 817.925 72.24C817.925 87.45 813.505 94.08 804.795 94.08C796.345 94.08 792.185 87.58 792.185 72.76C792.185 57.29 796.605 50.53 805.445 50.53Z" fill="black"/>
<defs>
<clipPath id="clip0_2488_7119">
<rect width="120" height="120" fill="white" transform="translate(410)"/>
</clipPath>
</defs>
</svg>
